<svg width="24" height="24" viewBox="0 0 24 24" fill="none" xmlns="http://www.w3.org/2000/svg">
<path d="M21.0375 16.075L17.8625 15.7125C17.1 15.625 16.35 15.8875 15.8125 16.425L13.5125 18.725C9.97499 16.925 7.07499 14.0375 5.27499 10.4875L7.58749 8.17501C8.12499 7.63751 8.38749 6.88751 8.29999 6.12501L7.93749 2.97501C7.78749 1.71251 6.72499 0.762512 5.44999 0.762512H3.28749C1.87499 0.762512 0.69999 1.93751 0.78749 3.35001C1.44999 14.025 9.98749 22.55 20.65 23.2125C22.0625 23.3 23.2375 22.125 23.2375 20.7125V18.55C23.25 17.2875 22.3 16.225 21.0375 16.075Z" fill="#08AE2D"/>
</svg>
